<?xml version="1.0" ?><svg enable-background="new 0 0 32 32" version="1.1" viewBox="0 0 32 32" xml:space="preserve" xmlns="http://www.w3.org/2000/svg" xmlns:xlink="http://www.w3.org/1999/xlink"><g id="Outline_copy"><g><g><path d="M15.242,8.941c-3.032,0-5.499,2.467-5.499,5.499c0,3.031,2.467,5.498,5.499,5.498c3.031,0,5.498-2.467,5.498-5.498     C20.74,11.408,18.273,8.941,15.242,8.941z"/></g><g><path d="M16.005,0.01c-8.837,0-16,7.163-16,16s7.163,16,16,16s16-7.163,16-16S24.842,0.01,16.005,0.01z M23.951,24.779     c-0.194,0.187-0.444,0.279-0.693,0.279c-0.263,0-0.524-0.103-0.721-0.307l-3.631-3.776c-1.085,0.611-2.333,0.963-3.664,0.963     c-4.135,0-7.499-3.363-7.499-7.498s3.364-7.499,7.499-7.499s7.498,3.364,7.498,7.499c0,2.08-0.852,3.964-2.225,5.323l3.463,3.602     C24.361,23.764,24.348,24.396,23.951,24.779z"/></g></g></g></svg>